#!OML:ASF H:\ManfredETheater\Project 1\Capture day 1\Session 1\subject.ASF
:FULLY-SPECIFIED
:DEGREES
154
root 0.666745 16.6843 -23.8301 -172.758 -1.46881 175.579
lowerback 10.4553 0.428978 -7.37709
upperback -3.15289 -0.601466 -0.800645
thorax -9.23371 0.0785689 3.41197
lowerneck -20.2444 -2.30958 -2.65538
upperneck 12.0047 -2.79965 2.48327
head 7.04334 -1.23842 0.912302
rclavicle 3.91979e-015 1.48095e-014
rhumerus -57.9341 1.6534 -97.96
rradius 101.79
rwrist -7.29451
rhand -16.8541 6.78227
rfingers 7.12502
rthumb 9.3761 -22.9892
lclavicle 3.91979e-015 1.48095e-014
lhumerus -46.8559 -12.5901 96.1316
lradius 116.082
lwrist 16.7942
lhand -22.6181 -9.93589
lfingers 7.12502
lthumb 3.81189 20.0098
rfemur -30.1663 -11.8744 10.4435
rtibia 102.546
rfoot -12.3006 -5.74252
rtoes -28.4386
lfemur -24.3715 -4.05468 -27.7954
ltibia 55.8506
lfoot -32.462 -5.18383
ltoes 6.50674
155
root 0.688635 16.6409 -24.2301 -172.61 -1.43513 175.092
lowerback 10.5704 0.171931 -7.85926
upperback -3.14962 -1.04635 -0.919556
thorax -9.2469 -0.116901 3.63731
lowerneck -20.5337 -2.13699 -2.54397
upperneck 12.3208 -2.61009 2.55592
head 7.1895 -1.13196 0.938561
rclavicle -9.82742e-015 -1.2424e-014
rhumerus -59.3187 2.34377 -97.5631
rradius 101.402
rwrist -7.74915
rhand -16.4762 7.13648
rfingers 7.12502
rthumb 9.74073 -22.6183
lclavicle -9.82742e-015 -1.2424e-014
lhumerus -43.6168 -12.1164 96.0712
lradius 116.328
lwrist 15.2315
lhand -22.7861 -9.99364
lfingers 7.12502
lthumb 3.64962 19.9549
rfemur -34.0341 -12.0286 10.6682
rtibia 102.049
rfoot -12.8786 -5.92139
rtoes -29.0108
lfemur -22.5278 -4.53447 -28.417
ltibia 55.3323
lfoot -33.338 -3.9922
ltoes 4.91728
156
root 0.710223 16.6118 -24.639 -172.334 -1.54938 174.691
lowerback 10.6024 -0.16292 -8.23916
upperback -3.2197 -1.57007 -0.973169
thorax -9.27607 -0.350547 3.88829
lowerneck -20.8408 -1.93703 -2.37634
upperneck 12.659 -2.35828 2.45221
head 7.34165 -1.00174 0.906999
rclavicle 1.35546e-014 4.81059e-014
rhumerus -60.8669 3.28647 -97.2258
rradius 101.533
rwrist -7.71222
rhand -15.8094 7.73193
rfingers 7.12502
rthumb 10.384 -21.9917
lclavicle 1.35546e-014 4.81059e-014
lhumerus -40.7223 -11.6031 96.1111
lradius 116.91
lwrist 13.756
lhand -23.0192 -9.9809
lfingers 7.12502
lthumb 3.42459 19.9713
rfemur -37.7798 -12.2138 11.0621
rtibia 100.96
rfoot -13.4348 -6.12697
rtoes -29.6321
lfemur -20.7245 -5.2627 -28.9601
ltibia 54.6333
lfoot -33.8585 -2.70812
ltoes 2.89024
157
root 0.7324 16.599 -25.0574 -171.934 -1.75865 174.418
lowerback 10.5555 -0.549993 -8.48505
upperback -3.36706 -2.13095 -0.946013
thorax -9.3332 -0.602069 4.15536
lowerneck -21.1126 -1.69456 -2.16419
upperneck 12.9501 -2.04426 2.17682
head 7.46946 -0.866649 0.818819
rclavicle -7.57867e-015 -1.59028e-014
rhumerus -62.5449 4.33275 -96.9102
rradius 102.084
rwrist -7.35331
rhand -14.983 8.44837
rfingers 7.12502
rthumb 11.1811 -21.2337
lclavicle -7.57867e-015 -1.59028e-014
lhumerus -38.1544 -11.1854 96.2355
lradius 117.787
lwrist 12.7382
lhand -23.3217 -9.86409
lfingers 7.12502
lthumb 3.13247 20.0926
rfemur -41.363 -12.3515 11.6445
rtibia 99.2689
rfoot -13.9603 -6.36033
rtoes -30.2441
lfemur -18.9724 -6.12466 -29.3662
ltibia 53.7698
lfoot -34.0029 -1.43439
ltoes 0.432018
